<svg version="1.0" xmlns="http://www.w3.org/2000/svg" width="40" height="40" viewBox="0 0 765 744">
  <path fill="#47A2DB" d="M361.5 16.1C330 17.8 294.2 24.3 268 33c-13 4.3-23 8.6-52.9 22.7-3 1.4-10.6 6.1-17 10.4-19.3 12.8-25 15-39.2 14.7-4.9-.1-7.5.3-8.5 1.3-.8.8-1.9 5.2-2.5 9.9-2.3 19.1-3.9 21.9-15.4 28.4-11.2 6.4-12.4 7.2-22.1 16.2-12.7 11.6-15.1 12.9-25 12.9-4.5 0-8.6.3-9 .8-.4.4-.8 6-.9 12.5-.1 10-.6 13.3-3.3 22.6-3.7 12.6-4 16.1-1.4 17.5 3.5 1.8 25.5 7.9 26.9 7.4.7-.3 4-4.4 7.3-9.2 9.7-14.1 18-23.9 32.1-37.6 15-14.7 19.1-17.8 50.9-39.5 12.4-8.4 27.5-18.9 33.5-23.4 22.8-17 31.2-21.5 76.4-41.1 31.8-13.8 53.6-23.7 68.5-31.2 7.3-3.7 14.7-6.8 17-7 4.7-.6 14.8 3.6 37.8 15.6 16.5 8.6 36.6 17.9 59.3 27.3 26 10.7 35.9 15.9 55.2 28.8 44 29.2 69.7 52.6 92.6 84.3 15.7 21.7 23.1 30.9 27 33.5 3.5 2.3 4.1 2.4 8 1.3 4.4-1.4 22.7-10.8 22.7-11.8 0-.3-.7-4.1-1.6-8.3-1.3-6.7-1.4-9.2-.2-20.4.8-6.9 1.1-13 .8-13.5-.3-.5-5.2-1.1-10.9-1.5-6.1-.4-11.9-1.3-14-2.3-2.1-.9-11.1-9.2-21.4-19.7-19.8-20.1-19.6-19.8-21.7-36.5-.5-4.6-1.2-8.6-1.5-8.9-.2-.3-3 0-6.1.7-7.7 1.5-11.8 1.4-18.9-.4-13.2-3.5-20-7.9-27.3-18-4.5-6.2-4.4-6.1-10-6.9-3.2-.4-7.3-2.4-14-6.7-30.5-19.8-74.3-34.6-119.2-40.3-14.6-1.8-40.5-2.5-58.5-1.5z"/>
  <path fill="#47A2DB" d="M379.5 42.1c-20.8 7.2-88.4 40.3-104.1 51-6.6 4.5-17.6 14-39.4 33.9-24.2 22.1-34.1 30.6-41.8 35.9-7 4.7-8.8 6.7-9.5 10.6-.7 4.1 1.8 21.7 4.3 29.5 2.6 8.6 2.5 15.1-.5 24.4-4.6 14.1-11.7 25.5-18.7 30-2.5 1.6-4.2 1.8-12.6 1.3-15.1-.8-31.3-6.5-49.6-17.3-5-3-11.9-6.8-15.3-8.6-5.9-3-6.4-3.1-8-1.6-1.5 1.5-1.5 2.3-.3 7.5 1.4 6.3 11.7 36.7 17 50.1 2.6 6.6 4.9 10.1 10.5 16.5 23.3 26.4 72.7 73 95.9 90.4 3.7 2.8 8.4 2.9 15.8.4 13.2-4.5 27.1-3.3 40.7 3.6 9.2 4.8 16.4 12.3 21.5 22.6 4.8 9.7 6 18.1 5.2 35.2-.7 14.5-2 22.4-6.5 37.6-3.6 12.6-5.8 27.1-6.6 43.9-.4 6.9-.8 14.3-.9 16.5-.1 2.2 0 5.1.4 6.5.5 2.1 1.1 1 3.4-5.9 1.5-4.6 4.3-11.6 6.3-15.5 4.2-8.4 12-18.9 13.6-18.3 2.4.8 4.6 6.6 6.2 16.2.9 5.5 2.4 13.4 3.5 17.5 1 4.1 2.6 11.5 3.6 16.4l1.7 8.9 3.8-8.2c2.4-5.1 4.3-8.1 5.1-7.9.7.2 4 5.1 7.2 10.8l6 10.4 1.2-3c.7-1.7 2.4-9.1 3.9-16.5 2.2-11.7 5.5-25.4 7.1-29.8.3-1 2.6.6 7.5 5.5 10.4 10.2 13.5 15.2 16 26 2.2 9.8 4.9 15.4 7.4 15.4 2.1 0 5.1-6.5 7.1-15.1.9-4.1 2.6-9.2 3.9-11.4 2.6-4.4 17.6-20.5 19.2-20.5 1.1 0 4.1 12.7 6.8 28.5 2.2 12.8 4.3 20.7 5.4 20.1.5-.3 2.7-3.6 4.9-7.3 2.3-3.8 5.2-8.2 6.6-9.8l2.4-3 4.1 8.4c2.2 4.6 4.2 7.8 4.5 7 .9-3 8.6-36.9 10-44.3 1.6-8.1 3.7-12.6 5.9-12.6 3.7 0 16.4 23 19.3 35.2 2.8 11.4 3.8 7.4 3.1-12.6-.8-21.1-2.4-33.7-6.7-53.1-5.4-24.6-5.8-52-.9-63.5 7.7-18.2 17.5-27 34.6-31.5 8.6-2.3 23.7-2 29.3.6 2.4 1.1 6.3 2.2 8.5 2.6 3.6.5 4.8 0 10.8-4.1 12.2-8.4 35.2-27.3 50.3-41.4 23.4-21.9 51-50.3 53.2-54.8 3.2-6.3 14.7-35.3 18.7-46.7 3.7-11 4.2-14.6 2.3-16.5-2.1-2.1-4.3-1.3-15.4 5.4-14.9 9-20.5 11.8-30.4 14.8-19.9 6-33.5 7.4-39.9 4.2-6-3.1-14.5-17.7-18.2-31.1-2.6-9.6-2.2-16.9 1.4-28.9 1.5-4.9 3-12.5 3.3-17 .8-9.7-.5-13.2-6.3-16.7-6.3-3.7-15.5-11.9-41.8-36.9-38.6-36.7-40.9-38.4-67-52.6-31-16.8-78.6-39.5-82.7-39.4-.7.1-4 1-7.3 2.1zm12 9c6.2 1.7 54.8 26.5 79.9 40.8 5.4 3.1 12.9 8.3 16.5 11.7 3.6 3.3 9.3 7.9 12.6 10.1 10 6.8 17.5 16.1 17.5 21.7 0 2.6-1.1 4.1-6 8.4-7.4 6.5-9 9.1-6.1 9.9 1.1.3 2.7 2 3.6 3.9.8 1.8 2 3.6 2.5 3.9.4.3 1.4 2.2 2 4.3.7 2 2.3 4.7 3.5 5.9 1.3 1.2 2.6 3.7 3 5.5 1.2 6.2 1.6 6.8 4 6.8 3.1 0 6.3 6.9 7.5 16.1.4 3.9 1.1 7.3 1.4 7.6 1 1 2.6-.9 3.6-4.5 1.8-6.8-.9-18-8.5-35.2-2.1-4.7-3.8-9.7-3.8-11.2 0-3.5 5-11.1 6.8-10.4 4.6 1.7 24.1 19 32.7 28.9l5.8 6.8-2.5 4.4c-2.9 4.8-4.4 13.3-5.2 28.3-1 20.6 3.3 32.5 17.3 47.1 16.4 17.2 26.9 21.2 44.7 16.6 6.5-1.7 8.7-1.9 8.7-1 0 1.8-6.7 7.5-8.8 7.5-2.5 0-12.5 6.1-18.6 11.4-8.4 7.2-14.5 10.5-26.1 14.1-12.5 3.9-16.6 6.2-31 17.9-5.7 4.6-11 8.8-11.9 9.3-.8.5-1.7 2-1.8 3.3-.4 3.3.8 3.1 15.6-3.2 6.6-2.8 18.1-7 25.5-9.3 7.5-2.4 18.8-6 25.1-8 7.6-2.4 15.7-5.9 24.1-10.5 6.9-3.9 13.1-7 13.7-7 3.3 0-.1 4-12.5 14.6-13.3 11.4-26.3 23.1-51.8 46.9-19 17.7-21.2 19.5-24.8 19.6-6.1.2-7.2-.3-13.2-6.7-10.5-11.2-25.3-17.8-42.4-19.1-10-.7-15.1.5-17.5 4.2-1 1.5-2.9 2.5-5.6 3-3 .5-4.4 1.4-5.4 3.3-.8 1.5-3.1 4.3-5.1 6.2-2 1.9-4.8 5.5-6.2 8-1.4 2.5-4.3 6.8-6.4 9.6-2.1 2.8-4.5 6.9-5.3 9.1-.8 2.2-3 6.2-4.9 8.9-1.9 2.7-4.8 7.4-6.3 10.4l-2.9 5.5.1 21c.2 32.6 2.7 57.4 5.9 57.8 1.8.3 4.6-10.3 10-37.9 11.6-58.9 13.5-62.9 37.5-81.2 5.2-4 11-8.4 12.9-10 2.5-2 4.5-2.7 7.5-2.6 4.2 0 13.6 3.9 13.6 5.5 0 1.2-5.5 3.5-33.3 14.1-5.4 2.1-10.4 6.6-12.7 11.4-3.8 8.2-11 30.3-12.1 37.7-.6 3.9-.9 14-.7 22.6.4 13 .8 16.5 2.6 21.1 2.9 7.2 2.8 8.1-.9 11.6-4.6 4.4-11.8 14.2-15 20.6-1.6 3.1-4.3 10.6-6 16.5-1.7 5.9-3.7 11.9-4.6 13.1-1.3 2.1-1.6 2.2-3.1.9-1-.9-4.4-6.6-7.7-12.8-7.1-13.2-9.4-15.2-17-14.6-6.8.5-11.2 2.8-18.8 9.7l-6.4 5.9-5.9-6.1c-7.2-7.3-12-9.7-19.6-9.8-7.5 0-9.1 1.5-17.1 15.9-3.5 6.3-6.9 11.7-7.5 11.9-1.6.5-3.7-4.2-6.6-15.3-3.5-13.4-9.3-24.7-17.8-34.5l-6.9-8 2.1-4c4.8-9.4 6.7-31.7 4.1-48.1-1.2-7.4-8.6-33-10.7-37-3.3-6.4-12-11.7-29.9-18.4-16.8-6.2-16.9-6.3-15.5-8 .7-.9 3.2-2 5.6-2.6 2.4-.6 4.4-1.5 4.4-2 0-1.5 4.3-.9 7.7.9 3.2 1.7 19.2 14.5 27.1 21.7C305.4 404 310 416.8 317 458c5.8 35 8.4 46 10.6 46 .7 0 1.8-1.7 2.3-3.8 3.4-12.6 6.4-66.7 4.2-75.8-.7-2.8-3.7-9-6.7-13.9s-5.4-9.5-5.4-10.1c0-.6-2.2-4.5-4.8-8.5-2.6-4.1-5.4-8.8-6.1-10.5-.6-1.7-3.3-5.1-5.8-7.5-2.4-2.4-4.9-5.4-5.3-6.5-.6-1.4-2.7-2.8-6.1-3.9-3.1-1.1-5.3-2.4-5.6-3.5-.8-2.9-6-4.4-15.2-4.3-16.4.1-31 5.8-42.8 16.8-7.7 7.1-10.7 8.7-15 7.9-4-.7-7.6-3.8-26.8-22.4-22.1-21.5-33.4-32.3-47.3-45-11.3-10.2-15-14.5-13.8-15.7.8-.9 4.9 1.1 13.6 6.6 9.3 6 17.8 9.7 34.5 15.1 16.5 5.4 28 9.8 42.1 16 18.3 8.1 19.1 6.4 3.7-7.2-15.5-13.6-19.9-16.5-32.7-21.3-16.4-6.3-20.6-8.6-29.1-16.6-4.8-4.6-14.6-10.5-18.6-11.4-2.8-.6-7.7-6-6.6-7.2.4-.3 4.3.5 8.9 1.7 18.7 5 34.3-1.4 49.8-20.7 12.6-15.6 15.1-25.5 13.2-51.1-.9-12.4-1.3-14.6-3.7-18.7-2.7-4.5-2.7-4.6-.9-6.8 5.8-7 17.7-18.4 22.9-21.9 3.3-2.2 7.9-5.9 10.2-8.1 2.2-2.1 4.6-3.6 5.2-3.2.6.3 2.1 2.5 3.2 4.7 2.8 5.5 2.3 8.8-3.4 21.9-7.4 16.8-9.6 28.9-6.3 33.5 1.9 2.5 2.3 1.9 3.5-5.4.6-3.5 2.1-8.8 3.5-11.8 2.2-4.8 2.8-5.4 4.9-4.9 2.1.6 2.4.1 3.6-4.6.8-2.9 2.4-6.2 3.6-7.3 1.2-1.2 2.8-3.8 3.4-5.9.7-2 1.6-3.7 2.1-3.7.4 0 1.3-1.5 1.9-3.3.6-1.7 2.1-3.9 3.3-4.9 1.9-1.4 2.1-2 1-4.2-.6-1.4-3.3-4.2-6.1-6.3-5.7-4.4-6.5-6.4-4.6-10.9 2.4-5.7 6.6-10.3 16.5-17.6 5.2-4 11.5-8.9 14-11.1 2.5-2.1 7.6-5.7 11.4-7.9 5.5-3.2 67.1-34.2 81.6-41 4.1-2 9-2.2 14.5-.7z"/>
  <path fill="#47A2DB" d="M306.6 125.5c-2.7 6.4-10.4 30.9-12.7 40.3l-2.2 9.2 2.2 2.4c1.2 1.2 5.4 4.5 9.4 7.2 19.2 12.9 31.6 24.2 39 35.5 3.7 5.6 15.7 17.9 17.5 17.9 1.5 0 2.1-3.8 1.1-7.4-1.9-6.7-17.4-28.7-30.9-43.6-11.6-12.9-13.6-15.6-16.4-23.1-3.6-9.5-4.9-17.9-4.8-30.7.1-6.1-.1-11.2-.3-11.2-.3 0-1.1 1.6-1.9 3.5zM462.4 129.2c.6 7.9-1.6 23.7-4.5 32.6-2.7 8.1-6.7 14-17.8 26-11.2 12.1-17.8 20.3-25 31.2-8.2 12.2-10 17.3-6.6 18.6 2 .8 16.1-12.1 18.7-17.1 3.3-6.4 18.2-20.3 30.1-28 17.9-11.6 19.2-12.7 19.5-16.4.5-5.3-10.4-46.4-13.8-51.7-.9-1.5-1-.6-.6 4.8zM246.2 219.1c-18.8 3.6-41.9 27.1-46.2 47-1.3 5.8-.7 12.3 1.1 13.5 1.5.9 1.7.4 3.3-7.9 2.2-11.2 6.5-18.6 17.1-29.2 10.4-10.4 17.3-14.3 28-15.8 9.2-1.3 15.1-.3 21.3 3.6 17 10.7 41.5 28 46.3 32.7 5.7 5.6 11.5 16.2 15.3 27.6.9 2.9 2.6 6 3.6 6.9 1.1 1 2 2.3 2 3 0 2.3 3.8 4.8 6.4 4.1 2.8-.7 20.1-19.3 21.6-23.2.6-1.4 1-3.6 1-5 0-2.2-.4-2-5.4 2.8-6.8 6.8-16.5 11.6-20.4 10.2-3.3-1.1-6.9-7.9-7.7-14.5-.6-4.5-1.2-5.2-15.3-18.5-20-18.8-24.6-22.6-34.3-28.5-12.9-7.7-26.8-11-37.7-8.8zM500.4 223c-9.8 2-28.2 13.9-40.7 26.1-3.4 3.4-8.4 7.8-11.2 9.9-2.7 2-7.1 6-9.7 8.7-3.7 4.1-4.8 6-5.3 9.9-1.2 7.9-5 13.4-9.2 13.4-3.9 0-10.4-3.9-17-10.3-3.5-3.3-6.6-5.7-6.9-5.4-.4.3-.3 2.2 0 4.2.5 2.4 3 6.1 7.9 11.7 11.1 12.6 13.3 14.8 15.5 14.8 2.9 0 8.5-8.3 12.6-18.6 6.4-15.7 11.9-22.6 25.4-31.2 4-2.6 12.7-8.4 19.5-12.9 6.7-4.6 15.1-9.7 18.5-11.4 6-3 6.9-3.1 14.7-2.7 12.1.8 19.3 4.6 31.1 16.3 10.2 10.2 16.3 20.5 17.1 29.2.7 7.4 1.2 9.3 2.7 9.3 4.5 0 2.8-15.7-2.9-27.5-5.3-11-20.7-26.2-32-31.6-4.2-2-6.8-2.4-15.5-2.6-5.8-.1-12.4.2-14.6.7z"/>
  <path fill="#47A2DB" d="M244.8 240.5c-7.8 1.9-13.6 6.1-17.9 12.8-2.2 3.4-4.2 7.3-4.5 8.7-.3 1.4-1 3.8-1.6 5.5-.6 1.6-1.4 5.2-1.9 8-.4 2.7-1.1 6.5-1.5 8.3-2.2 11.2 14.1 26.4 34.6 32.1 11.4 3.2 19.3 4.2 32.3 4.2 13.4 0 16.3-.9 26.2-8.3 3.3-2.4 8.2-5.7 10.8-7.3 2.7-1.5 5.1-3.4 5.4-4.2 1.5-3.8-36-44-48.9-52.3-9.8-6.4-24.5-9.7-33-7.5zM506.7 244c-14.5 3.1-22 8.5-47.3 34.2-16.8 17-20.7 21.7-19.6 23.4.4.6 3 2.5 5.7 4.4 2.8 1.8 7.8 5.5 11.2 8.2 8.3 6.5 11.6 7.7 23.5 8.4 16.9 1.1 36.6-2.5 49-8.7 7-3.6 15.6-11.7 18.7-17.7 2.3-4.5 2.8-10.1.9-12-.6-.6-1.2-3.1-1.3-5.4-.6-12-4.2-20.2-12.2-28-8.3-8-15.3-9.6-28.6-6.8zM375.3 327.2c-11.6 12.2-17.9 27.7-19.8 48.8-.8 9.1.9 21.1 3.2 22.7 3.2 2.4 9.2 3.7 12 2.7 4.7-1.6 6.2-5.1 7.8-17.4 1.8-14.3 3.5-21.4 4.6-20.3 1.1 1.1 3.9 19.3 3.9 25.4 0 5.8 1.7 10.6 4 11.9 4.1 2.2 12.8.3 15.9-3.4 2-2.4 2.9-13.6 2-24.7-1-11.5-4.8-24.9-9.5-33.9-3.8-7.2-13.6-18-16.3-18-1 0-4.5 2.8-7.8 6.2zM165.7 188.9c-11.3 9.4-35.8 36.7-38.4 42.8-3.8 9.1 7.6 16.6 23.7 15.6 8.5-.6 13.8-3 20-9.3 8.9-8.8 13.3-22.5 11.1-34-1.2-5.9-4.6-15.4-6.4-17.8-1.7-2.2-5.1-1.3-10 2.7zM591.7 195.2c-5.8 12.4-6.3 28-1.2 38.4 3.9 8 10.7 14.6 17.8 17.3 10.1 3.7 24.6 2.2 30.5-3.2 2.8-2.6 2.9-7.6.1-13.4-2.5-5.1-14-18.6-28.8-33.6-12.9-13-14.6-13.6-18.4-5.5zM45.1 231c-5 10-9.1 18.8-9.1 19.6 0 .9-1.3 3.4-2.9 5.7-9.7 14.2-15.5 35.6-18.7 69.6-2.1 21.2-1.5 75.1 1 93.6 5.8 43.3 16.4 78.5 32.7 108.1 2.1 3.9 3.9 8.1 3.9 9.3 0 4.3 2.9 8.8 13.9 22.1 13.1 15.8 13.7 17.4 12.2 29.8-.6 4.8-1.1 9-1.1 9.4 0 .5 4.1.8 9 .8 13.7 0 17.4 2.3 27.2 16.7 2.3 3.4 5.3 6.8 6.6 7.5 1.3.7 3.3 2.6 4.5 4.3 1.1 1.6 6.8 7.8 12.5 13.7l10.4 10.6-.7 6.1-.7 6.1h4.4c2.3.1 10.4.5 17.9.9 13.2.8 13.9 1 21.5 4.9 4.3 2.2 9.5 4.7 11.5 5.5 3 1.3 4 2.5 5.5 6.7 1.3 3.6 2.2 4.9 3.3 4.5.8-.3 4-.8 7.1-1.2 6.6-.6 9.9.8 21.1 8.9l7.1 5.2 10.1.7c5.6.4 17.6 1.9 26.7 3.2 9.1 1.4 19.8 2.8 23.9 3.2l7.4.7-.7-3.8c-1.2-6.3-6.6-24.7-7.8-26.1-.6-.7-1.8-1.3-2.7-1.3-.9 0-2.5-.7-3.5-1.5-2.5-1.9-5.7-1.9-8.2 0-4 3-7.1 1.9-14.8-5.4-5.4-5.1-8.5-7.2-11.7-8.1-5.8-1.5-19.9-7.1-19.9-7.9 0-.3.9-7.2 2.1-15.3 3.4-23.6 1.9-24.7-13.2-10.2-11 10.5-15.2 13-19.4 11.4-4.1-1.5-21.4-11.7-28.5-16.8-7.8-5.5-18.7-15.7-20.5-19.2-1.6-3.2-.7-5.1 3.9-8 2.4-1.4 4.8-4.6 7.9-10.3 4.2-7.9 11-18.7 19.6-31.1 2.3-3.2 4.1-6.3 4.1-6.7 0-2.4-5.5-.3-13.9 5.1-10.9 7.1-14.9 9.2-22.8 12.2-3.2 1.1-9.3 4.3-13.5 7-4.3 2.6-8.9 4.8-10.3 4.8-4.5 0-17.8-14.2-28.6-30.8-7.1-10.8-7.6-13-4.6-19.4 1.4-2.9 5.7-9.1 9.7-13.8 7.1-8.4 9.8-12.5 8.8-13.5-.2-.3-9.4 1.3-20.3 3.5-22.9 4.6-19.9 5.5-26.9-8-13.3-25.7-19.1-52.2-20.6-94.5-1.4-38.2.5-56.3 9.3-90.6 6-23 7.1-31.3 6.4-46.8-.4-10.9-1-14.1-4.1-23.6-4-12.2-10.4-24.8-12.8-25.3-1.1-.2-4.1 4.8-10.7 17.8zM709.9 224.2c-4.2 5.8-8 14.1-12 26.8-3.2 10-3.4 11.2-3.3 25.5 0 13.7.3 16.5 3.8 31.5 9.5 41.8 10 46.9 9.3 85.8-.6 31-2.6 48.8-7.7 67.7-6.2 22.6-18.5 48.8-23.5 50.1-1.2.3-5.2-.2-9-1-3.9-.8-11.3-2.4-16.5-3.5-10.7-2.3-14-2.6-14-1.1 0 .6 3 4.8 6.6 9.3 9.5 11.6 13.4 18 13.4 22 0 7.3-20.1 34-31.8 42.1-4.9 3.3-5.8 3.1-15.6-3.4-3.9-2.6-10.2-6-14.1-7.6-3.8-1.6-12.6-6.6-19.4-11.1-6.8-4.6-12.8-8.3-13.3-8.3-2.6 0 .2 6.2 7.9 17.7 4.7 7 10.5 16.9 12.9 22 3.5 7.6 5 9.7 8.3 11.8 5 3.1 5.3 5.6 1.2 10.6-5.9 7.1-30.3 24-42.4 29.3-9.7 4.4-10.4 4.1-23.2-8.4-11.8-11.5-14.8-13.1-15.9-8.5-.6 2.4.3 12.1 2.3 24.5.5 3.3.5 6.2 0 7.2-1.3 2.4-7.2 5.3-14.9 7.3-8.6 2.2-9.4 2.7-17.2 10.1-3.6 3.5-7.4 6.4-8.5 6.4-1 0-4-1.3-6.7-2.9l-5-2.8-2.4 2.9c-1.8 2.2-2.7 2.6-3.7 1.8-1-.9-1.6-.7-2.3.7-1.1 2-7.6 22.1-8.6 26.7l-.7 2.9 11.8-.6c6.5-.4 16.1-1.4 21.3-2.2 5.2-.9 15.2-1.8 22.2-2.2l12.8-.6 11.2-7.4c6.1-4 11.8-7.3 12.6-7.3.8 0 4.1.7 7.4 1.6 3.3.8 6.1 1.4 6.2 1.2.1-.2 1-2.5 2-5.1 1.3-3.4 2.6-5.2 4.5-5.9 1.4-.6 6-2.6 10.1-4.5 8.2-3.7 17.3-5.3 31.6-5.3 4.5 0 9.6-.3 11.3-.6 2.9-.6 3.1-.9 3.1-5.4 0-4.9 1.6-11 3-11 1.6 0 15.1-13.4 18.1-18.1 1.8-2.7 3.8-4.9 4.4-4.9 1.5 0 4.5-3.2 14-14.8l7.5-9.2h12.1c12.1 0 12.1 0 11.6-2.2-.3-1.3-.9-5.8-1.2-10-.9-10 .6-13.3 12.1-25.9 10-10.9 14.4-16.6 14.4-18.7 0-1.6 5-12.9 11.7-26.7 16.6-33.8 25.7-65.1 30.2-104 .6-5 1.6-18.9 2.2-31 2.4-48.4-2.7-94-12.8-113.8-1.4-2.9-5.8-12.4-9.8-21.2-10.7-23.7-14.9-32.5-15.7-32.5-.5 0-2.2 1.9-3.9 4.2z"/>
  <path fill="#47A2DB" d="M96.6 312.4c-2.6 4.1-6.4 16.4-9 29.6-6.7 34.3-7.1 48.2-1.7 65.4 1.7 5.4 3.1 11 3.1 12.5 0 1.4.9 5.3 1.9 8.6 1 3.3 3.3 13.9 5 23.5 3.3 18.4 6.2 26.5 10.5 29.3 3.6 2.4 9.3 3.6 20.6 4.2 14.1.8 19 1.4 19 2.5 0 .5-4.1 7-9.2 14.5-6 8.9-9.1 14.4-9.1 16.3 0 4.8 1.1 7.7 3.5 8.7 1.3.5 5.7 5.8 9.8 11.7 6.2 8.9 7.9 10.7 10.1 10.8 4.2 0 14.5-4.2 40.1-16.6 13.1-6.3 24.4-11.4 25.3-11.4 2.1 0 1.9 6-.3 12.5-.9 2.8-5.2 11.2-9.5 18.7-9.6 16.9-14.9 29-15.1 34.1-.1 3.2.5 4.4 2.9 6.3 3.9 3.2 18.3 11.2 24.4 13.5 4.7 1.7 4.8 1.7 10.6-.6 6.5-2.7 21.7-11.6 25.3-14.8 1.2-1.1 2.2-3.2 2.2-4.6 0-3.6-3.6-9.1-5.9-9.1-1.1 0-2.9-1.2-4-2.6-2.7-3.4-2.7-8.9-.1-17.2 1.1-3.5 2-8.7 2-11.5 0-4.4.6-6.1 4-11.2 5.2-7.8 7.6-14.3 8.5-23 .4-4.1 2.1-10.6 4-15.5 5.5-14 6.6-21 3.3-21-.6 0-5 1.8-9.9 4-6.9 3.1-12.1 4.5-23.3 6.5-10.8 1.8-18.2 3.9-29.7 8.1-16.6 6-25 7.5-31.2 5.5-4.8-1.6-12.8-8.9-15.7-14.4-2.3-4.3-2.3-4.5-.7-8.6 2.6-6.5.9-8.8-12.5-16.7-7.1-4.1-13.8-10.2-13.8-12.4 0-.4 1.2-2.3 2.7-4.1l2.7-3.2-2.4-1.6c-9.4-6.2-12.5-11.1-18-29.1-6.5-21-7-40.7-1.6-57.5 3.9-12.1 3.6-15.5-2.2-24.5-5.8-8.9-12.9-18-14.1-18-.5 0-1.6 1.1-2.5 2.4zM661.6 322.7c-2.7 3.2-7 8.9-9.5 12.7-5.4 8.1-5.7 11.5-2.2 23.2 5.4 18.3 5.1 31.3-1.3 52.6-6.3 20.7-7.3 22.7-14.4 29.5l-6.5 6.2 1.7 2.6c3.5 5.3.1 10-11.5 16.1-3.7 2-8.6 5.2-10.9 7.1-3.7 3.2-4.1 4-3.5 6.7 1.8 8.9 1.8 8.9-2.1 14.1-9.9 13.5-20.2 15.3-40.2 6.9-11.9-4.9-24.7-8.7-37.4-11.1-7.6-1.5-13.4-3.4-20.3-6.7-5.4-2.5-10.2-4.3-10.7-4-1.7 1-.2 9.8 3.6 21.4 1.9 5.8 3.9 14.2 4.5 18.7 1 8.2 3.4 14.2 8.6 21.9 1.8 2.6 2.5 5 2.5 8.4 0 2.5.9 8 2 12.1 3.3 12.4 2.3 16.6-4.7 19.5-4.2 1.8-7 7.5-5.7 11.3 1.6 4.5 27.9 20.5 33.5 20.3 4.9-.1 28-12.6 29.9-16.2 2.7-5.1.1-13.3-11.6-36.4-4.7-9.3-9.5-19.3-10.5-22.4-2.2-6.4-2.5-12.2-.6-12.2.6 0 5 2.1 9.7 4.6 15.7 8.3 44.3 22.4 49.8 24.4 4.9 1.9 5.7 1.9 7.8.6 1.2-.9 3.5-3.3 5-5.3 8.5-11.6 10.9-14.4 13.2-15.6 1.8-.8 3.1-2.7 4.1-5.9l1.4-4.7-8-11.8c-4.4-6.5-8.8-13.3-9.7-15-1.6-3.2-1.6-3.3.6-3.7 1.3-.3 8.6-.7 16.3-.9 24.9-.7 27.1-3.2 34.4-39.7 2.5-12.9 5.7-25.5 9.6-38 4.2-13.4 4.9-20.5 3.6-36-2.6-29.3-10.1-61-14.5-61-.6 0-3.4 2.6-6 5.7z"/>
  <path fill="#47A2DB" d="M132.5 359.7c-9.8 8.5-11.6 11-12.2 16.4-.6 6.7.7 7.8 5.5 4.6 6.4-4.2 22.2-19.7 22.2-21.8 0-2.4-3.5-5.9-5.9-5.9-1 0-5.4 3-9.6 6.7zM620.2 359.6c-4.9 3.4-4.7 5 1 11 6.4 6.8 19.4 17.4 21.3 17.4 1.9 0 2.8-3.5 2-7.8-.5-2.7-2.8-5.7-10-12.9-5.1-5.1-9.9-9.3-10.7-9.3-.7 0-2.4.7-3.6 1.6zM153.9 378.3c-1.9 1.2-5 4.8-7 7.8-4 5.9-8.2 9.9-14.7 13.8-5.2 3.1-6.9 6.2-5.4 9.6.6 1.4 1.8 2.5 2.5 2.5 2 0 21-9.4 26.5-13.2 7.4-4.9 13.2-10.9 13.2-13.6 0-3.2-6.1-9.2-9.3-9.2-1.3 0-3.9 1-5.8 2.3zM599.4 384.4c-5.6 5.6-4.4 9.7 5.1 16.9 6.9 5.2 27.9 16.6 30.7 16.7 2.2 0 4.1-3.5 3.3-6-.7-2.3-8.3-9-10.1-9-1.5 0-6.4-5.6-11.1-12.6-3.8-5.7-8.6-9.4-12.3-9.4-1.2 0-3.7 1.5-5.6 3.4zM179.1 396.6c-1.7 1.4-5.8 6-9.2 10.2-3.4 4.2-7.5 8.7-9.1 9.8-2.6 2-12.1 5.4-19.1 6.9-2.2.4-2.7 1-2.2 2.3 1.1 2.9 6.9 11.1 8.3 11.7 1.8.7 5.6-1.4 15.5-8.4 4.5-3.2 11.9-8 16.4-10.6 4.5-2.7 10.1-6.7 12.3-9l4.2-4.3-2.9-2.8c-4-4.1-9.3-8.4-10.3-8.4-.5 0-2.2 1.2-3.9 2.6zM574 404l-6.5 6 5 4.5c2.8 2.5 8.9 7 13.8 10 4.8 3.1 12.3 8.2 16.7 11.4 10.3 7.7 11.4 8 15 4.6 3.8-3.7 6.2-8.6 4.9-10.2-.6-.6-4.5-2.4-8.8-3.8-9.3-3.1-13.3-5.8-17.8-12.2-3.4-4.8-14.1-16.3-15.2-16.3-.3 0-3.5 2.7-7.1 6zM234 403.4c-8.1 3.1-23.1 11.3-33 18.1-13.9 9.6-26.2 16.7-35.2 20.5-4.1 1.6-8.9 4.3-10.8 5.8l-3.3 2.8 8.9 9.3 8.9 9.3 4.5-2c2.5-1.1 8-3.6 12.2-5.5 8.3-3.8 15.3-8.7 24.9-17.2 3.4-3 11.6-9.6 18.2-14.7 16.2-12.4 18.7-14.9 18.7-18.6 0-6.6-7-10.5-14-7.8zM519.4 408.4c-6.1 6.1-4.9 8.8 8.4 19.3 5.3 4.2 14.9 12.3 21.2 17.8 6.3 5.6 13.8 11.9 16.5 14 5.4 4.1 23.9 13.5 26.7 13.5 2.7 0 17.8-14.1 17.8-16.7 0-2.1-7.7-7.8-13.1-9.7-6.5-2.3-14.6-7.1-30.9-18.5-19.4-13.7-36.3-23.1-41.2-23.1-1.1 0-3.5 1.5-5.4 3.4zM256 422c-8.4 5.5-14.4 11.1-31 28.6-13 13.7-19.8 18.5-32.6 23.4-14.9 5.5-20.9 11.1-15.3 14.1 4.3 2.3 12.9 1.3 25.4-2.9 6.6-2.2 17.2-5 23.5-6.1 19-3.4 31-7.9 45.2-17l6.6-4.3.7-6c.9-7.7-.2-18.2-2.4-23.3-2.2-5.1-8.2-11.5-10.8-11.5-1 0-5.2 2.2-9.3 5zM496.4 420c-2.8 1.1-6.7 6.3-9.5 12.6-1.7 3.7-2.4 7.5-2.7 15.5l-.4 10.7 5.5 4.1c13.8 10.1 24.7 14.8 45.9 19.6 8.1 1.9 18 4.6 22 6 12.7 4.7 17 5.6 22.2 5.1 12.3-1.3 8-8.5-9-15-14.4-5.4-24.2-13.8-46.2-39.5-4.2-4.9-17.8-15.8-23-18.5-1.7-.9-3.5-1.1-4.8-.6zM298.3 529.2c-1.1 1.5-3.4 6.7-13.7 31.4l-7.6 18.2 1 12.8c2.8 34.3 9 69.7 12.1 67.9 1.2-.8 7.9-14 11.3-22.4 4.9-12 9.6-32.9 9.6-42.5 0-6.3-9.6-64.6-10.8-65.8-.5-.5-1.3-.3-1.9.4zM455.7 555.2c-7.9 44.2-8.1 47.5-3.8 64.8 3.7 14.4 13.5 39.9 16 41.5 1.7 1 3.6-4.4 6.5-18.1 2.8-13.5 7.1-42.6 8.1-54.9l.6-8-7.9-20c-9.8-24.6-12.8-31.5-13.9-31.5-.5 0-3 11.8-5.6 26.2zM349 550.2c-4.9 20.8-6.4 34.9-6.4 60.3.1 26.8 1 35.7 7.5 72 4.3 23.8 8.1 40.1 10.5 44.7 3.2 6.1 7.3.9 9.9-12.3 1.9-10.3 3.3-29.4 4.6-64.9 1.8-48.6.5-64.8-6.6-83.1-2.5-6.4-14.9-25.9-16.4-25.9-.5 0-1.9 4.1-3.1 9.2zM406.6 544.6c-4.7 4.9-8.6 11.2-13.1 20.7-8.9 19-11.1 36.8-10.1 82.7 1.1 52 3.1 74.3 7.1 80.4 4.5 6.9 7.1 1.3 13.9-30 14.2-64.6 16.3-96.9 9-139.3-3-17.8-3.3-18.2-6.8-14.5zM321.1 576.7c-6.6 22.5-6.4 21-6.4 47.3 0 25.4 1 36.3 4.4 48.8 2.1 7.9 6.4 17.2 7.9 17.2 2.6 0 6.4-9.8 9.5-24.7 3.6-16.9 1.2-61-4.1-76.9-2.9-8.5-6.8-16.9-8.3-17.9-.6-.3-1.9 2.5-3 6.2zM433.1 577.1c-13.4 23.2-16.8 84.4-6.1 108.6 3.6 8.2 7.9 3.4 12.4-14.1 7.3-28 7.5-65.7.6-90.6-1.2-4.1-2.5-7.9-3-8.4-.5-.4-2.2 1.6-3.9 4.5z"/>
</svg>
